<svg width="48" height="48" viewBox="0 0 48 48" fill="none" xmlns="http://www.w3.org/2000/svg">
<rect width="48" height="48" rx="24" fill="#FEF2E8"/>
<g clip-path="url(#clip0_51_367)">
<path fill-rule="evenodd" clip-rule="evenodd" d="M25 17C25 16.4477 24.5523 16 24 16C23.4477 16 23 16.4477 23 17V23H17C16.4477 23 16 23.4477 16 24C16 24.5523 16.4477 25 17 25H23V31C23 31.5523 23.4477 32 24 32C24.5523 32 25 31.5523 25 31V25H31C31.5523 25 32 24.5523 32 24C32 23.4477 31.5523 23 31 23H25V17Z" fill="#023A6B"/>
</g>
<defs>
<clipPath id="clip0_51_367">
<rect width="16" height="16" fill="white" transform="translate(16 16)"/>
</clipPath>
</defs>
</svg>
